<svg width="52" height="52" viewBox="0 0 52 52" fill="none" xmlns="http://www.w3.org/2000/svg">
<rect width="52" height="52" rx="14" fill="#EEF5FF"/>
<path d="M26.5417 25.9458C27.0653 25.368 27.467 24.709 27.7469 23.9687C28.0267 23.2285 28.1667 22.4611 28.1667 21.6666C28.1667 20.8722 28.0267 20.1048 27.7469 19.3646C27.467 18.6243 27.0653 17.9653 26.5417 17.3875C27.625 17.5319 28.5278 18.0104 29.25 18.8229C29.9722 19.6354 30.3333 20.5833 30.3333 21.6666C30.3333 22.75 29.9722 23.6979 29.25 24.5104C28.5278 25.3229 27.625 25.8014 26.5417 25.9458ZM32.5 34.6666V31.4166C32.5 30.7666 32.3556 30.1482 32.0667 29.5614C31.7778 28.9746 31.3986 28.4555 30.9292 28.0041C31.85 28.3291 32.7031 28.7489 33.4885 29.2635C34.274 29.7781 34.6667 30.4958 34.6667 31.4166V34.6666H32.5ZM34.6667 27.0833V24.9166H32.5V22.75H34.6667V20.5833H36.8333V22.75H39V24.9166H36.8333V27.0833H34.6667ZM21.6667 26C20.475 26 19.4549 25.5757 18.6062 24.7271C17.7576 23.8785 17.3333 22.8583 17.3333 21.6666C17.3333 20.475 17.7576 19.4548 18.6062 18.6062C19.4549 17.7576 20.475 17.3333 21.6667 17.3333C22.8583 17.3333 23.8785 17.7576 24.7271 18.6062C25.5757 19.4548 26 20.475 26 21.6666C26 22.8583 25.5757 23.8785 24.7271 24.7271C23.8785 25.5757 22.8583 26 21.6667 26ZM13 34.6666V31.6333C13 31.0194 13.158 30.4552 13.474 29.9406C13.7899 29.426 14.2097 29.0333 14.7333 28.7625C15.8528 28.2028 16.9903 27.783 18.1458 27.5031C19.3014 27.2232 20.475 27.0833 21.6667 27.0833C22.8583 27.0833 24.0319 27.2232 25.1875 27.5031C26.3431 27.783 27.4806 28.2028 28.6 28.7625C29.1236 29.0333 29.5434 29.426 29.8594 29.9406C30.1753 30.4552 30.3333 31.0194 30.3333 31.6333V34.6666H13ZM21.6667 23.8333C22.2625 23.8333 22.7726 23.6212 23.1969 23.1969C23.6212 22.7725 23.8333 22.2625 23.8333 21.6666C23.8333 21.0708 23.6212 20.5607 23.1969 20.1364C22.7726 19.7121 22.2625 19.5 21.6667 19.5C21.0708 19.5 20.5608 19.7121 20.1365 20.1364C19.7122 20.5607 19.5 21.0708 19.5 21.6666C19.5 22.2625 19.7122 22.7725 20.1365 23.1969C20.5608 23.6212 21.0708 23.8333 21.6667 23.8333ZM15.1667 32.5H28.1667V31.6333C28.1667 31.4347 28.117 31.2541 28.0177 31.0916C27.9184 30.9291 27.7875 30.8028 27.625 30.7125C26.65 30.225 25.666 29.8594 24.6729 29.6156C23.6799 29.3719 22.6778 29.25 21.6667 29.25C20.6556 29.25 19.6535 29.3719 18.6604 29.6156C17.6674 29.8594 16.6833 30.225 15.7083 30.7125C15.5458 30.8028 15.4149 30.9291 15.3156 31.0916C15.2163 31.2541 15.1667 31.4347 15.1667 31.6333V32.5Z" fill="#72AEE6"/>
</svg>
