<svg width="52" height="52" viewBox="0 0 52 52" fill="none" xmlns="http://www.w3.org/2000/svg">
<rect width="52" height="52" rx="14" fill="#FFF4E5"/>
<path d="M24.9167 37.375C23.4181 37.375 22.0098 37.0906 20.6917 36.5219C19.3737 35.9531 18.2271 35.1812 17.2521 34.2062C16.2771 33.2312 15.5052 32.0847 14.9365 30.7667C14.3677 29.4486 14.0834 28.0403 14.0834 26.5417C14.0834 25.0431 14.3677 23.6347 14.9365 22.3167C15.5052 20.9986 16.2771 19.8521 17.2521 18.8771C18.2271 17.9021 19.3737 17.1302 20.6917 16.5615C22.0098 15.9927 23.4181 15.7083 24.9167 15.7083C25.6931 15.7083 26.4424 15.7851 27.1646 15.9385C27.8868 16.092 28.582 16.3132 29.25 16.6021V19.0396C28.6181 18.6785 27.9365 18.3941 27.2052 18.1865C26.474 17.9788 25.7112 17.875 24.9167 17.875C22.5153 17.875 20.4705 18.7191 18.7823 20.4073C17.0941 22.0955 16.25 24.1403 16.25 26.5417C16.25 28.9431 17.0941 30.9878 18.7823 32.676C20.4705 34.3642 22.5153 35.2083 24.9167 35.2083C27.3181 35.2083 29.3629 34.3642 31.0511 32.676C32.7393 30.9878 33.5834 28.9431 33.5834 26.5417C33.5834 25.9639 33.5247 25.4042 33.4073 24.8625C33.29 24.3208 33.132 23.7972 32.9334 23.2917H35.2625C35.425 23.8153 35.5469 24.3434 35.6282 24.876C35.7094 25.4087 35.75 25.9639 35.75 26.5417C35.75 28.0403 35.4657 29.4486 34.8969 30.7667C34.3282 32.0847 33.5563 33.2312 32.5813 34.2062C31.6063 35.1812 30.4598 35.9531 29.1417 36.5219C27.8237 37.0906 26.4153 37.375 24.9167 37.375ZM33.5834 21.125V18.9583H31.4167V16.7917H33.5834V14.625H35.75V16.7917H37.9167V18.9583H35.75V21.125H33.5834ZM28.7084 25.4583C29.1598 25.4583 29.5434 25.3003 29.8594 24.9844C30.1754 24.6684 30.3334 24.2847 30.3334 23.8333C30.3334 23.3819 30.1754 22.9983 29.8594 22.6823C29.5434 22.3663 29.1598 22.2083 28.7084 22.2083C28.257 22.2083 27.8733 22.3663 27.5573 22.6823C27.2414 22.9983 27.0834 23.3819 27.0834 23.8333C27.0834 24.2847 27.2414 24.6684 27.5573 24.9844C27.8733 25.3003 28.257 25.4583 28.7084 25.4583ZM21.125 25.4583C21.5764 25.4583 21.9601 25.3003 22.2761 24.9844C22.5921 24.6684 22.75 24.2847 22.75 23.8333C22.75 23.3819 22.5921 22.9983 22.2761 22.6823C21.9601 22.3663 21.5764 22.2083 21.125 22.2083C20.6737 22.2083 20.29 22.3663 19.974 22.6823C19.658 22.9983 19.5 23.3819 19.5 23.8333C19.5 24.2847 19.658 24.6684 19.974 24.9844C20.29 25.3003 20.6737 25.4583 21.125 25.4583ZM24.9167 32.5C26.1445 32.5 27.2594 32.1524 28.2615 31.4573C29.2636 30.7622 29.9903 29.8458 30.4417 28.7083H19.3917C19.8431 29.8458 20.5698 30.7622 21.5719 31.4573C22.574 32.1524 23.6889 32.5 24.9167 32.5Z" fill="#FF9800"/>
</svg>
