<svg width="64" height="88" viewBox="0 0 64 88" fill="none" xmlns="http://www.w3.org/2000/svg">
<rect width="64" height="64" rx="32" fill="#E8F5E9"/>
<path d="M31.9998 45.3334C30.1554 45.3334 28.4221 44.9834 26.7998 44.2834C25.1776 43.5834 23.7665 42.6334 22.5665 41.4334C21.3665 40.2334 20.4165 38.8222 19.7165 37.2C19.0165 35.5778 18.6665 33.8445 18.6665 32C18.6665 30.1556 19.0165 28.4222 19.7165 26.8C20.4165 25.1778 21.3665 23.7667 22.5665 22.5667C23.7665 21.3667 25.1776 20.4167 26.7998 19.7167C28.4221 19.0167 30.1554 18.6667 31.9998 18.6667C33.4443 18.6667 34.8109 18.8778 36.0998 19.3C37.3887 19.7222 38.5776 20.3111 39.6665 21.0667L37.7332 23.0334C36.8887 22.5 35.9887 22.0834 35.0332 21.7834C34.0776 21.4834 33.0665 21.3334 31.9998 21.3334C29.0443 21.3334 26.5276 22.3722 24.4498 24.45C22.3721 26.5278 21.3332 29.0445 21.3332 32C21.3332 34.9556 22.3721 37.4722 24.4498 39.55C26.5276 41.6278 29.0443 42.6667 31.9998 42.6667C34.9554 42.6667 37.4721 41.6278 39.5498 39.55C41.6276 37.4722 42.6665 34.9556 42.6665 32C42.6665 31.6 42.6443 31.2 42.5998 30.8C42.5554 30.4 42.4887 30.0111 42.3998 29.6334L44.5665 27.4667C44.8109 28.1778 44.9998 28.9111 45.1332 29.6667C45.2665 30.4222 45.3332 31.2 45.3332 32C45.3332 33.8445 44.9832 35.5778 44.2832 37.2C43.5832 38.8222 42.6332 40.2334 41.4332 41.4334C40.2332 42.6334 38.8221 43.5834 37.1998 44.2834C35.5776 44.9834 33.8443 45.3334 31.9998 45.3334ZM30.1332 38.1334L24.4665 32.4667L26.3332 30.6L30.1332 34.4L43.4665 21.0334L45.3332 22.9L30.1332 38.1334Z" fill="#4CAF50"/>
</svg>
